<svg width="381" height="49" viewBox="0 0 381 49" fill="none" xmlns="http://www.w3.org/2000/svg">
<path d="M58.357 37.458V19.958H64.632L68.107 35.208H68.557V19.958H71.807V37.458H65.532L62.057 22.208H61.607V37.458H58.357ZM75.3551 37.458V19.958H86.6051V22.958H78.6551V27.133H85.9051V30.133H78.6551V34.458H86.7551V37.458H75.3551ZM96.1979 37.808C94.7645 37.808 93.5312 37.5497 92.4979 37.033C91.4812 36.4997 90.6979 35.7497 90.1479 34.783C89.6145 33.7997 89.3479 32.6413 89.3479 31.308V19.958H92.6479V31.408C92.6479 32.4747 92.9479 33.3163 93.5479 33.933C94.1645 34.5497 95.0479 34.858 96.1979 34.858C97.3479 34.858 98.2229 34.5497 98.8229 33.933C99.4395 33.3163 99.7479 32.4747 99.7479 31.408V19.958H103.048V31.308C103.048 32.6413 102.773 33.7997 102.223 34.783C101.69 35.7497 100.906 36.4997 99.8729 37.033C98.8562 37.5497 97.6312 37.808 96.1979 37.808ZM106.495 37.458V19.958H114.095C115.195 19.958 116.153 20.1497 116.97 20.533C117.786 20.9163 118.42 21.458 118.87 22.158C119.32 22.858 119.545 23.683 119.545 24.633V24.933C119.545 25.983 119.295 26.833 118.795 27.483C118.295 28.133 117.678 28.608 116.945 28.908V29.358C117.611 29.3913 118.128 29.6247 118.495 30.058C118.861 30.4747 119.045 31.033 119.045 31.733V37.458H115.745V32.208C115.745 31.808 115.636 31.483 115.42 31.233C115.22 30.983 114.878 30.858 114.395 30.858H109.795V37.458H106.495ZM109.795 27.858H113.745C114.528 27.858 115.136 27.6497 115.57 27.233C116.02 26.7997 116.245 26.233 116.245 25.533V25.283C116.245 24.583 116.028 24.0247 115.595 23.608C115.161 23.1747 114.545 22.958 113.745 22.958H109.795V27.858ZM121.341 37.458L125.941 19.958H131.691L136.291 37.458H132.891L131.941 33.608H125.691L124.741 37.458H121.341ZM126.466 30.558H131.166L129.041 22.033H128.591L126.466 30.558ZM138.635 37.458V19.958H141.935V34.458H149.935V37.458H138.635ZM158.276 37.458V19.958H161.576V34.458H169.576V37.458H158.276ZM172.076 37.458V19.958H183.326V22.958H175.376V27.133H182.626V30.133H175.376V34.458H183.476V37.458H172.076ZM184.969 37.458L189.569 19.958H195.319L199.919 37.458H196.519L195.569 33.608H189.319L188.369 37.458H184.969ZM190.094 30.558H194.794L192.669 22.033H192.219L190.094 30.558ZM202.263 37.458V19.958H209.463C210.563 19.958 211.53 20.183 212.363 20.633C213.213 21.0663 213.872 21.683 214.338 22.483C214.822 23.283 215.063 24.233 215.063 25.333V25.683C215.063 26.7663 214.813 27.7163 214.313 28.533C213.83 29.333 213.163 29.958 212.313 30.408C211.48 30.8413 210.53 31.058 209.463 31.058H205.563V37.458H202.263ZM205.563 28.058H209.138C209.922 28.058 210.555 27.8413 211.038 27.408C211.522 26.9747 211.763 26.383 211.763 25.633V25.383C211.763 24.633 211.522 24.0413 211.038 23.608C210.555 23.1747 209.922 22.958 209.138 22.958H205.563V28.058ZM227.156 37.458L222.706 19.958H226.106L229.806 35.333H230.156L233.856 19.958H237.256L232.806 37.458H227.156ZM239.61 37.458V19.958H250.86V22.958H242.91V27.133H250.16V30.133H242.91V34.458H251.01V37.458H239.61ZM253.703 37.458V19.958H259.978L263.453 35.208H263.903V19.958H267.153V37.458H260.878L257.403 22.208H256.953V37.458H253.703ZM274.751 37.458V22.958H269.651V19.958H283.151V22.958H278.051V37.458H274.751ZM292.398 37.808C290.965 37.808 289.731 37.5497 288.698 37.033C287.681 36.4997 286.898 35.7497 286.348 34.783C285.815 33.7997 285.548 32.6413 285.548 31.308V19.958H288.848V31.408C288.848 32.4747 289.148 33.3163 289.748 33.933C290.365 34.5497 291.248 34.858 292.398 34.858C293.548 34.858 294.423 34.5497 295.023 33.933C295.64 33.3163 295.948 32.4747 295.948 31.408V19.958H299.248V31.308C299.248 32.6413 298.973 33.7997 298.423 34.783C297.89 35.7497 297.106 36.4997 296.073 37.033C295.056 37.5497 293.831 37.808 292.398 37.808ZM302.695 37.458V19.958H310.295C311.395 19.958 312.353 20.1497 313.17 20.533C313.987 20.9163 314.62 21.458 315.07 22.158C315.52 22.858 315.745 23.683 315.745 24.633V24.933C315.745 25.983 315.495 26.833 314.995 27.483C314.495 28.133 313.878 28.608 313.145 28.908V29.358C313.812 29.3913 314.328 29.6247 314.695 30.058C315.062 30.4747 315.245 31.033 315.245 31.733V37.458H311.945V32.208C311.945 31.808 311.837 31.483 311.62 31.233C311.42 30.983 311.078 30.858 310.595 30.858H305.995V37.458H302.695ZM305.995 27.858H309.945C310.728 27.858 311.337 27.6497 311.77 27.233C312.22 26.7997 312.445 26.233 312.445 25.533V25.283C312.445 24.583 312.228 24.0247 311.795 23.608C311.362 23.1747 310.745 22.958 309.945 22.958H305.995V27.858ZM318.741 37.458V19.958H329.991V22.958H322.041V27.133H329.291V30.133H322.041V34.458H330.141V37.458H318.741ZM338.909 37.808C337.559 37.808 336.367 37.5663 335.334 37.083C334.3 36.5997 333.492 35.908 332.909 35.008C332.325 34.108 332.034 33.0247 332.034 31.758V31.058H335.284V31.758C335.284 32.808 335.609 33.5997 336.259 34.133C336.909 34.6497 337.792 34.908 338.909 34.908C340.042 34.908 340.884 34.683 341.434 34.233C342 33.783 342.284 33.208 342.284 32.508C342.284 32.0247 342.142 31.633 341.859 31.333C341.592 31.033 341.192 30.7913 340.659 30.608C340.142 30.408 339.509 30.2247 338.759 30.058L338.184 29.933C336.984 29.6663 335.95 29.333 335.084 28.933C334.234 28.5163 333.575 27.9747 333.109 27.308C332.659 26.6413 332.434 25.7747 332.434 24.708C332.434 23.6413 332.684 22.733 333.184 21.983C333.7 21.2163 334.417 20.633 335.334 20.233C336.267 19.8163 337.359 19.608 338.609 19.608C339.859 19.608 340.967 19.8247 341.934 20.258C342.917 20.6747 343.684 21.308 344.234 22.158C344.8 22.9913 345.084 24.0413 345.084 25.308V26.058H341.834V25.308C341.834 24.6413 341.7 24.108 341.434 23.708C341.184 23.2913 340.817 22.9913 340.334 22.808C339.85 22.608 339.275 22.508 338.609 22.508C337.609 22.508 336.867 22.6997 336.384 23.083C335.917 23.4497 335.684 23.958 335.684 24.608C335.684 25.0413 335.792 25.408 336.009 25.708C336.242 26.008 336.584 26.258 337.034 26.458C337.484 26.658 338.059 26.833 338.759 26.983L339.334 27.108C340.584 27.3747 341.667 27.7163 342.584 28.133C343.517 28.5497 344.242 29.0997 344.759 29.783C345.275 30.4663 345.534 31.3413 345.534 32.408C345.534 33.4747 345.259 34.4163 344.709 35.233C344.175 36.033 343.409 36.6663 342.409 37.133C341.425 37.583 340.259 37.808 338.909 37.808Z" fill="white"/>
<path d="M6.38854 29.8981L6.20977 29.7194C6.02564 29.5356 5.87956 29.3173 5.77988 29.077C5.68021 28.8367 5.62891 28.5791 5.62891 28.319C5.62891 28.0588 5.68021 27.8012 5.77988 27.5609C5.87956 27.3207 6.02564 27.1024 6.20977 26.9186L18.306 14.8019C18.4898 14.6178 18.7081 14.4717 18.9483 14.372C19.1886 14.2724 19.4462 14.2211 19.7063 14.2211C19.9665 14.2211 20.2241 14.2724 20.4643 14.372C20.7046 14.4717 20.9229 14.6178 21.1066 14.8019L27.6414 21.337L40.3335 7.07509C40.5137 6.87454 40.7327 6.71276 40.9773 6.59958C41.222 6.4864 41.4871 6.4242 41.7565 6.41677C42.026 6.40934 42.2941 6.45683 42.5446 6.55634C42.7951 6.65586 43.0227 6.80533 43.2136 6.99564C43.9485 7.75044 43.9883 8.94225 43.2931 9.71692L29.0517 25.7467C28.8728 25.9493 28.6542 26.1129 28.4095 26.2274C28.1647 26.3419 27.899 26.4048 27.6289 26.4123C27.3588 26.4197 27.09 26.3715 26.8393 26.2707C26.5886 26.1699 26.3613 26.0185 26.1716 25.8261L19.7163 19.3705L9.18915 29.8981C9.00539 30.0823 8.78713 30.2284 8.54684 30.328C8.30656 30.4277 8.04898 30.479 7.78884 30.479C7.52871 30.479 7.27112 30.4277 7.03084 30.328C6.79056 30.2284 6.57229 30.0823 6.38854 29.8981ZM9.18915 41.8162L19.7163 31.2886L26.1716 37.7442C26.9859 38.5586 28.2969 38.5188 29.0517 37.6647L43.2931 21.635C43.9883 20.8603 43.9485 19.6685 43.2136 18.9137C43.0227 18.7234 42.7951 18.5739 42.5446 18.4744C42.2941 18.3749 42.026 18.3274 41.7565 18.3348C41.4871 18.3422 41.222 18.4044 40.9773 18.5176C40.7327 18.6308 40.5137 18.7926 40.3335 18.9931L27.6414 33.255L21.1066 26.72C20.9229 26.5358 20.7046 26.3897 20.4643 26.2901C20.2241 26.1904 19.9665 26.1391 19.7063 26.1391C19.4462 26.1391 19.1886 26.1904 18.9483 26.2901C18.7081 26.3897 18.4898 26.5358 18.306 26.72L6.20977 38.8367C6.02564 39.0204 5.87956 39.2387 5.77988 39.479C5.68021 39.7193 5.62891 39.9769 5.62891 40.237C5.62891 40.4972 5.68021 40.7548 5.77988 40.9951C5.87956 41.2353 6.02564 41.4536 6.20977 41.6374L6.38854 41.8162C7.16317 42.5908 8.43437 42.5908 9.18915 41.8162Z" fill="#4871FD"/>
</svg>
