<svg width="460" height="64" viewBox="0 0 460 64" fill="none" xmlns="http://www.w3.org/2000/svg">
<path d="M80.65 41V23.5H86.925L90.4 38.75H90.85V23.5H94.1V41H87.825L84.35 25.75H83.9V41H80.65ZM97.648 41V23.5H108.898V26.5H100.948V30.675H108.198V33.675H100.948V38H109.048V41H97.648ZM118.491 41.35C117.057 41.35 115.824 41.0917 114.791 40.575C113.774 40.0417 112.991 39.2917 112.441 38.325C111.907 37.3417 111.641 36.1833 111.641 34.85V23.5H114.941V34.95C114.941 36.0167 115.241 36.8583 115.841 37.475C116.457 38.0917 117.341 38.4 118.491 38.4C119.641 38.4 120.516 38.0917 121.116 37.475C121.732 36.8583 122.041 36.0167 122.041 34.95V23.5H125.341V34.85C125.341 36.1833 125.066 37.3417 124.516 38.325C123.982 39.2917 123.199 40.0417 122.166 40.575C121.149 41.0917 119.924 41.35 118.491 41.35ZM128.788 41V23.5H136.388C137.488 23.5 138.446 23.6917 139.263 24.075C140.079 24.4583 140.713 25 141.163 25.7C141.613 26.4 141.838 27.225 141.838 28.175V28.475C141.838 29.525 141.588 30.375 141.088 31.025C140.588 31.675 139.971 32.15 139.238 32.45V32.9C139.904 32.9333 140.421 33.1667 140.788 33.6C141.154 34.0167 141.338 34.575 141.338 35.275V41H138.038V35.75C138.038 35.35 137.929 35.025 137.713 34.775C137.513 34.525 137.171 34.4 136.688 34.4H132.088V41H128.788ZM132.088 31.4H136.038C136.821 31.4 137.429 31.1917 137.863 30.775C138.313 30.3417 138.538 29.775 138.538 29.075V28.825C138.538 28.125 138.321 27.5667 137.888 27.15C137.454 26.7167 136.838 26.5 136.038 26.5H132.088V31.4ZM143.634 41L148.234 23.5H153.984L158.584 41H155.184L154.234 37.15H147.984L147.034 41H143.634ZM148.759 34.1H153.459L151.334 25.575H150.884L148.759 34.1ZM160.928 41V23.5H164.228V38H172.228V41H160.928ZM180.569 41V23.5H183.869V38H191.869V41H180.569ZM194.369 41V23.5H205.619V26.5H197.669V30.675H204.919V33.675H197.669V38H205.769V41H194.369ZM207.262 41L211.862 23.5H217.612L222.212 41H218.812L217.862 37.15H211.612L210.662 41H207.262ZM212.387 34.1H217.087L214.962 25.575H214.512L212.387 34.1ZM224.556 41V23.5H231.756C232.856 23.5 233.823 23.725 234.656 24.175C235.506 24.6083 236.165 25.225 236.631 26.025C237.115 26.825 237.356 27.775 237.356 28.875V29.225C237.356 30.3083 237.106 31.2583 236.606 32.075C236.123 32.875 235.456 33.5 234.606 33.95C233.773 34.3833 232.823 34.6 231.756 34.6H227.856V41H224.556ZM227.856 31.6H231.431C232.215 31.6 232.848 31.3833 233.331 30.95C233.815 30.5167 234.056 29.925 234.056 29.175V28.925C234.056 28.175 233.815 27.5833 233.331 27.15C232.848 26.7167 232.215 26.5 231.431 26.5H227.856V31.6ZM249.449 41L244.999 23.5H248.399L252.099 38.875H252.449L256.149 23.5H259.549L255.099 41H249.449ZM261.903 41V23.5H273.153V26.5H265.203V30.675H272.453V33.675H265.203V38H273.303V41H261.903ZM275.996 41V23.5H282.271L285.746 38.75H286.196V23.5H289.446V41H283.171L279.696 25.75H279.246V41H275.996ZM297.044 41V26.5H291.944V23.5H305.444V26.5H300.344V41H297.044ZM314.691 41.35C313.258 41.35 312.024 41.0917 310.991 40.575C309.974 40.0417 309.191 39.2917 308.641 38.325C308.108 37.3417 307.841 36.1833 307.841 34.85V23.5H311.141V34.95C311.141 36.0167 311.441 36.8583 312.041 37.475C312.658 38.0917 313.541 38.4 314.691 38.4C315.841 38.4 316.716 38.0917 317.316 37.475C317.933 36.8583 318.241 36.0167 318.241 34.95V23.5H321.541V34.85C321.541 36.1833 321.266 37.3417 320.716 38.325C320.183 39.2917 319.399 40.0417 318.366 40.575C317.349 41.0917 316.124 41.35 314.691 41.35ZM324.988 41V23.5H332.588C333.688 23.5 334.646 23.6917 335.463 24.075C336.28 24.4583 336.913 25 337.363 25.7C337.813 26.4 338.038 27.225 338.038 28.175V28.475C338.038 29.525 337.788 30.375 337.288 31.025C336.788 31.675 336.171 32.15 335.438 32.45V32.9C336.105 32.9333 336.621 33.1667 336.988 33.6C337.355 34.0167 337.538 34.575 337.538 35.275V41H334.238V35.75C334.238 35.35 334.13 35.025 333.913 34.775C333.713 34.525 333.371 34.4 332.888 34.4H328.288V41H324.988ZM328.288 31.4H332.238C333.021 31.4 333.63 31.1917 334.063 30.775C334.513 30.3417 334.738 29.775 334.738 29.075V28.825C334.738 28.125 334.521 27.5667 334.088 27.15C333.655 26.7167 333.038 26.5 332.238 26.5H328.288V31.4ZM341.034 41V23.5H352.284V26.5H344.334V30.675H351.584V33.675H344.334V38H352.434V41H341.034ZM361.202 41.35C359.852 41.35 358.66 41.1083 357.627 40.625C356.593 40.1417 355.785 39.45 355.202 38.55C354.618 37.65 354.327 36.5667 354.327 35.3V34.6H357.577V35.3C357.577 36.35 357.902 37.1417 358.552 37.675C359.202 38.1917 360.085 38.45 361.202 38.45C362.335 38.45 363.177 38.225 363.727 37.775C364.293 37.325 364.577 36.75 364.577 36.05C364.577 35.5667 364.435 35.175 364.152 34.875C363.885 34.575 363.485 34.3333 362.952 34.15C362.435 33.95 361.802 33.7667 361.052 33.6L360.477 33.475C359.277 33.2083 358.243 32.875 357.377 32.475C356.527 32.0583 355.868 31.5167 355.402 30.85C354.952 30.1833 354.727 29.3167 354.727 28.25C354.727 27.1833 354.977 26.275 355.477 25.525C355.993 24.7583 356.71 24.175 357.627 23.775C358.56 23.3583 359.652 23.15 360.902 23.15C362.152 23.15 363.26 23.3667 364.227 23.8C365.21 24.2167 365.977 24.85 366.527 25.7C367.093 26.5333 367.377 27.5833 367.377 28.85V29.6H364.127V28.85C364.127 28.1833 363.993 27.65 363.727 27.25C363.477 26.8333 363.11 26.5333 362.627 26.35C362.143 26.15 361.568 26.05 360.902 26.05C359.902 26.05 359.16 26.2417 358.677 26.625C358.21 26.9917 357.977 27.5 357.977 28.15C357.977 28.5833 358.085 28.95 358.302 29.25C358.535 29.55 358.877 29.8 359.327 30C359.777 30.2 360.352 30.375 361.052 30.525L361.627 30.65C362.877 30.9167 363.96 31.2583 364.877 31.675C365.81 32.0917 366.535 32.6417 367.052 33.325C367.568 34.0083 367.827 34.8833 367.827 35.95C367.827 37.0167 367.552 37.9583 367.002 38.775C366.468 39.575 365.702 40.2083 364.702 40.675C363.718 41.125 362.552 41.35 361.202 41.35Z" fill="#333333"/>
<path d="M7.44173 39.4135L7.20173 39.1735C6.95452 38.9268 6.75839 38.6337 6.62457 38.3111C6.49075 37.9886 6.42188 37.6427 6.42188 37.2935C6.42188 36.9442 6.49075 36.5984 6.62457 36.2758C6.75839 35.9532 6.95452 35.6602 7.20173 35.4135L23.4417 19.1468C23.6884 18.8996 23.9815 18.7035 24.3041 18.5697C24.6267 18.4358 24.9725 18.367 25.3217 18.367C25.671 18.367 26.0168 18.4358 26.3394 18.5697C26.662 18.7035 26.955 18.8996 27.2017 19.1468L35.9751 27.9201L53.0151 8.77348C53.2569 8.50425 53.5509 8.28705 53.8794 8.13511C54.2078 7.98317 54.5637 7.89967 54.9255 7.88969C55.2872 7.87971 55.6472 7.94346 55.9835 8.07706C56.3198 8.21066 56.6254 8.41132 56.8817 8.66681C57.8684 9.68015 57.9217 11.2801 56.9884 12.3201L37.8684 33.8401C37.6283 34.1121 37.3348 34.3318 37.0062 34.4855C36.6776 34.6392 36.3209 34.7237 35.9582 34.7337C35.5956 34.7437 35.2348 34.679 34.8982 34.5437C34.5616 34.4083 34.2565 34.2051 34.0017 33.9468L25.3351 25.2801L11.2017 39.4135C10.955 39.6607 10.662 39.8568 10.3394 39.9906C10.0168 40.1245 9.67097 40.1933 9.32173 40.1933C8.97248 40.1933 8.62666 40.1245 8.30406 39.9906C7.98147 39.8568 7.68843 39.6607 7.44173 39.4135ZM11.2017 55.4135L25.3351 41.2801L34.0017 49.9468C35.0951 51.0401 36.8551 50.9868 37.8684 49.8401L56.9884 28.3201C57.9217 27.2801 57.8684 25.6801 56.8817 24.6668C56.6254 24.4113 56.3198 24.2107 55.9835 24.0771C55.6472 23.9435 55.2872 23.8797 54.9255 23.8897C54.5637 23.8997 54.2078 23.9832 53.8794 24.1351C53.5509 24.2871 53.2569 24.5042 53.0151 24.7735L35.9751 43.9201L27.2017 35.1468C26.955 34.8996 26.662 34.7035 26.3394 34.5697C26.0168 34.4358 25.671 34.367 25.3217 34.367C24.9725 34.367 24.6267 34.4358 24.3041 34.5697C23.9815 34.7035 23.6884 34.8996 23.4417 35.1468L7.20173 51.4135C6.95452 51.6602 6.75839 51.9532 6.62457 52.2758C6.49075 52.5984 6.42188 52.9442 6.42188 53.2935C6.42188 53.6427 6.49075 53.9886 6.62457 54.3111C6.75839 54.6337 6.95452 54.9268 7.20173 55.1735L7.44173 55.4135C8.48173 56.4535 10.1884 56.4535 11.2017 55.4135Z" fill="#4871FD"/>
</svg>
