<svg width="216" height="26" viewBox="0 0 216 26" fill="none" xmlns="http://www.w3.org/2000/svg">
<path d="M31.98 18.6702V8.59017H33.912L38.294 15.3102V8.59017H40.226V18.6702H38.294L33.912 11.9502V18.6702H31.98ZM42.3192 18.6702V8.59017H48.8992V10.3682H44.2232V12.5242H48.0592V14.3022H44.2232V16.8922H48.8992V18.6702H42.3192ZM54.819 18.8802C54.007 18.8802 53.293 18.7168 52.677 18.3902C52.061 18.0588 51.5804 17.5945 51.235 16.9972C50.8897 16.3998 50.717 15.6975 50.717 14.8902V8.60417L52.649 8.59017V14.8762C52.649 15.2075 52.705 15.5085 52.817 15.7792C52.929 16.0498 53.083 16.2832 53.279 16.4792C53.4797 16.6752 53.7107 16.8268 53.972 16.9342C54.238 17.0368 54.5204 17.0882 54.819 17.0882C55.127 17.0882 55.4117 17.0345 55.673 16.9272C55.939 16.8198 56.17 16.6682 56.366 16.4722C56.562 16.2762 56.7137 16.0428 56.821 15.7722C56.933 15.5015 56.989 15.2028 56.989 14.8762V8.59017H58.921V14.8902C58.921 15.6975 58.7484 16.3998 58.403 16.9972C58.0577 17.5945 57.577 18.0588 56.961 18.3902C56.345 18.7168 55.631 18.8802 54.819 18.8802ZM61.0152 18.6702V8.59017H65.2712C65.3692 8.59017 65.4999 8.59483 65.6632 8.60417C65.8312 8.60883 65.9806 8.62283 66.1112 8.64617C66.7132 8.7395 67.2056 8.93783 67.5882 9.24117C67.9756 9.5445 68.2602 9.92717 68.4422 10.3892C68.6242 10.8465 68.7152 11.3575 68.7152 11.9222C68.7152 12.7668 68.5052 13.4902 68.0852 14.0922C67.6652 14.6895 67.0072 15.0582 66.1112 15.1982L65.2712 15.2542H62.9192V18.6702H61.0152ZM66.6992 18.6702L64.7112 14.5682L66.6712 14.1902L68.8552 18.6702H66.6992ZM62.9192 13.4762H65.1872C65.2852 13.4762 65.3926 13.4715 65.5092 13.4622C65.6259 13.4528 65.7332 13.4342 65.8312 13.4062C66.0879 13.3362 66.2862 13.2195 66.4262 13.0562C66.5662 12.8882 66.6619 12.7038 66.7132 12.5032C66.7692 12.2978 66.7972 12.1042 66.7972 11.9222C66.7972 11.7402 66.7692 11.5488 66.7132 11.3482C66.6619 11.1428 66.5662 10.9585 66.4262 10.7952C66.2862 10.6272 66.0879 10.5082 65.8312 10.4382C65.7332 10.4102 65.6259 10.3915 65.5092 10.3822C65.3926 10.3728 65.2852 10.3682 65.1872 10.3682H62.9192V13.4762ZM69.8341 18.6702L72.9141 8.59017H75.7561L78.8361 18.6702H76.8761L74.1321 9.78017H74.4961L71.7941 18.6702H69.8341ZM71.6821 16.5702V14.7922H77.0021V16.5702H71.6821ZM80.3708 18.6702V8.59017H82.2748V16.8922H86.6148V18.6702H80.3708ZM90.3305 18.6702V8.59017H92.2345V16.8922H96.5745V18.6702H90.3305ZM97.9047 18.6702V8.59017H104.485V10.3682H99.8087V12.5242H103.645V14.3022H99.8087V16.8922H104.485V18.6702H97.9047ZM105.603 18.6702L108.683 8.59017H111.525L114.605 18.6702H112.645L109.901 9.78017H110.265L107.563 18.6702H105.603ZM107.451 16.5702V14.7922H112.771V16.5702H107.451ZM115.999 18.6702V8.59017H120.255C120.353 8.59017 120.484 8.59483 120.647 8.60417C120.815 8.60883 120.964 8.62283 121.095 8.64617C121.697 8.7395 122.189 8.93783 122.572 9.24117C122.959 9.5445 123.244 9.92717 123.426 10.3892C123.608 10.8465 123.699 11.3575 123.699 11.9222C123.699 12.4868 123.606 13.0002 123.419 13.4622C123.237 13.9195 122.952 14.2998 122.565 14.6032C122.182 14.9065 121.692 15.1048 121.095 15.1982C120.964 15.2168 120.815 15.2308 120.647 15.2402C120.479 15.2495 120.348 15.2542 120.255 15.2542H117.903V18.6702H115.999ZM117.903 13.4762H120.171C120.269 13.4762 120.376 13.4715 120.493 13.4622C120.61 13.4528 120.717 13.4342 120.815 13.4062C121.072 13.3362 121.27 13.2195 121.41 13.0562C121.55 12.8882 121.646 12.7038 121.697 12.5032C121.753 12.2978 121.781 12.1042 121.781 11.9222C121.781 11.7402 121.753 11.5488 121.697 11.3482C121.646 11.1428 121.55 10.9585 121.41 10.7952C121.27 10.6272 121.072 10.5082 120.815 10.4382C120.717 10.4102 120.61 10.3915 120.493 10.3822C120.376 10.3728 120.269 10.3682 120.171 10.3682H117.903V13.4762ZM130.357 18.6702L127.277 8.59017H129.237L131.757 16.8782L134.319 8.59017H136.279L133.199 18.6702H130.357ZM137.474 18.6702V8.59017H144.054V10.3682H139.378V12.5242H143.214V14.3022H139.378V16.8922H144.054V18.6702H137.474ZM145.872 18.6702V8.59017H147.804L152.186 15.3102V8.59017H154.118V18.6702H152.186L147.804 11.9502V18.6702H145.872ZM158.549 18.6702V10.3682H155.371V8.59017H163.631V10.3682H160.453V18.6702H158.549ZM168.998 18.8802C168.186 18.8802 167.472 18.7168 166.856 18.3902C166.24 18.0588 165.759 17.5945 165.414 16.9972C165.068 16.3998 164.896 15.6975 164.896 14.8902V8.60417L166.828 8.59017V14.8762C166.828 15.2075 166.884 15.5085 166.996 15.7792C167.108 16.0498 167.262 16.2832 167.458 16.4792C167.658 16.6752 167.889 16.8268 168.151 16.9342C168.417 17.0368 168.699 17.0882 168.998 17.0882C169.306 17.0882 169.59 17.0345 169.852 16.9272C170.118 16.8198 170.349 16.6682 170.545 16.4722C170.741 16.2762 170.892 16.0428 171 15.7722C171.112 15.5015 171.168 15.2028 171.168 14.8762V8.59017H173.1V14.8902C173.1 15.6975 172.927 16.3998 172.582 16.9972C172.236 17.5945 171.756 18.0588 171.14 18.3902C170.524 18.7168 169.81 18.8802 168.998 18.8802ZM175.194 18.6702V8.59017H179.45C179.548 8.59017 179.679 8.59483 179.842 8.60417C180.01 8.60883 180.159 8.62283 180.29 8.64617C180.892 8.7395 181.384 8.93783 181.767 9.24117C182.154 9.5445 182.439 9.92717 182.621 10.3892C182.803 10.8465 182.894 11.3575 182.894 11.9222C182.894 12.7668 182.684 13.4902 182.264 14.0922C181.844 14.6895 181.186 15.0582 180.29 15.1982L179.45 15.2542H177.098V18.6702H175.194ZM180.878 18.6702L178.89 14.5682L180.85 14.1902L183.034 18.6702H180.878ZM177.098 13.4762H179.366C179.464 13.4762 179.571 13.4715 179.688 13.4622C179.805 13.4528 179.912 13.4342 180.01 13.4062C180.267 13.3362 180.465 13.2195 180.605 13.0562C180.745 12.8882 180.841 12.7038 180.892 12.5032C180.948 12.2978 180.976 12.1042 180.976 11.9222C180.976 11.7402 180.948 11.5488 180.892 11.3482C180.841 11.1428 180.745 10.9585 180.605 10.7952C180.465 10.6272 180.267 10.5082 180.01 10.4382C179.912 10.4102 179.805 10.3915 179.688 10.3822C179.571 10.3728 179.464 10.3682 179.366 10.3682H177.098V13.4762ZM184.713 18.6702V8.59017H191.293V10.3682H186.617V12.5242H190.453V14.3022H186.617V16.8922H191.293V18.6702H184.713ZM196.919 18.8802C196.172 18.8802 195.498 18.7495 194.896 18.4882C194.298 18.2222 193.806 17.8442 193.419 17.3542C193.036 16.8595 192.793 16.2715 192.691 15.5902L194.679 15.2962C194.819 15.8748 195.108 16.3205 195.547 16.6332C195.985 16.9458 196.485 17.1022 197.045 17.1022C197.357 17.1022 197.661 17.0532 197.955 16.9552C198.249 16.8572 198.489 16.7125 198.676 16.5212C198.867 16.3298 198.963 16.0942 198.963 15.8142C198.963 15.7115 198.946 15.6135 198.914 15.5202C198.886 15.4222 198.837 15.3312 198.767 15.2472C198.697 15.1632 198.596 15.0838 198.466 15.0092C198.34 14.9345 198.179 14.8668 197.983 14.8062L195.365 14.0362C195.169 13.9802 194.94 13.9008 194.679 13.7982C194.422 13.6955 194.172 13.5485 193.93 13.3572C193.687 13.1658 193.484 12.9138 193.321 12.6012C193.162 12.2838 193.083 11.8848 193.083 11.4042C193.083 10.7275 193.253 10.1652 193.594 9.71717C193.934 9.26917 194.389 8.9355 194.959 8.71617C195.528 8.49683 196.158 8.3895 196.849 8.39417C197.544 8.4035 198.165 8.5225 198.711 8.75117C199.257 8.97983 199.714 9.3135 200.083 9.75217C200.451 10.1862 200.717 10.7182 200.881 11.3482L198.823 11.6982C198.748 11.3715 198.61 11.0962 198.41 10.8722C198.209 10.6482 197.969 10.4778 197.689 10.3612C197.413 10.2445 197.124 10.1815 196.821 10.1722C196.522 10.1628 196.24 10.2048 195.974 10.2982C195.712 10.3868 195.498 10.5175 195.33 10.6902C195.166 10.8628 195.085 11.0682 195.085 11.3062C195.085 11.5255 195.152 11.7052 195.288 11.8452C195.423 11.9805 195.593 12.0902 195.799 12.1742C196.004 12.2582 196.214 12.3282 196.429 12.3842L198.179 12.8602C198.44 12.9302 198.729 13.0235 199.047 13.1402C199.364 13.2522 199.667 13.4108 199.957 13.6162C200.251 13.8168 200.491 14.0828 200.678 14.4142C200.869 14.7455 200.965 15.1655 200.965 15.6742C200.965 16.2155 200.85 16.6892 200.622 17.0952C200.398 17.4965 200.094 17.8302 199.712 18.0962C199.329 18.3575 198.895 18.5535 198.41 18.6842C197.929 18.8148 197.432 18.8802 196.919 18.8802Z" fill="#4871FD"/>
<path d="M2.92863 16.178L2.8342 16.0836C2.73693 15.9865 2.65975 15.8712 2.6071 15.7443C2.55445 15.6173 2.52734 15.4813 2.52734 15.3438C2.52734 15.2064 2.55445 15.0703 2.6071 14.9434C2.65975 14.8165 2.73693 14.7012 2.8342 14.6041L9.22429 8.20352C9.32136 8.10624 9.43666 8.02907 9.5636 7.97642C9.69053 7.92376 9.8266 7.89666 9.96402 7.89666C10.1014 7.89666 10.2375 7.92376 10.3645 7.97642C10.4914 8.02907 10.6067 8.10624 10.7038 8.20352L14.1559 11.6556L20.8607 4.12183C20.9559 4.0159 21.0716 3.93043 21.2008 3.87065C21.3301 3.81086 21.4701 3.77801 21.6125 3.77408C21.7548 3.77015 21.8964 3.79524 22.0288 3.84781C22.1611 3.90038 22.2814 3.97933 22.3822 4.07986C22.7704 4.47859 22.7914 5.10815 22.4242 5.51737L14.9009 13.985C14.8064 14.092 14.6909 14.1785 14.5616 14.239C14.4323 14.2994 14.292 14.3327 14.1493 14.3366C14.0066 14.3406 13.8646 14.3151 13.7322 14.2618C13.5997 14.2086 13.4796 14.1286 13.3794 14.027L9.96927 10.6168L4.40811 16.178C4.31104 16.2753 4.19574 16.3525 4.0688 16.4051C3.94187 16.4578 3.80579 16.4849 3.66837 16.4849C3.53095 16.4849 3.39488 16.4578 3.26794 16.4051C3.14101 16.3525 3.02571 16.2753 2.92863 16.178ZM4.40811 22.4737L9.96927 16.9125L13.3794 20.3226C13.8096 20.7528 14.5021 20.7319 14.9009 20.2807L22.4242 11.813C22.7914 11.4038 22.7704 10.7742 22.3822 10.3755C22.2814 10.275 22.1611 10.196 22.0288 10.1435C21.8964 10.0909 21.7548 10.0658 21.6125 10.0697C21.4701 10.0737 21.3301 10.1065 21.2008 10.1663C21.0716 10.2261 20.9559 10.3115 20.8607 10.4175L14.1559 17.9513L10.7038 14.4992C10.6067 14.4019 10.4914 14.3247 10.3645 14.2721C10.2375 14.2194 10.1014 14.1923 9.96402 14.1923C9.8266 14.1923 9.69053 14.2194 9.5636 14.2721C9.43666 14.3247 9.32136 14.4019 9.22429 14.4992L2.8342 20.8997C2.73693 20.9968 2.65975 21.1121 2.6071 21.2391C2.55445 21.366 2.52734 21.5021 2.52734 21.6395C2.52734 21.7769 2.55445 21.913 2.6071 22.0399C2.65975 22.1669 2.73693 22.2822 2.8342 22.3792L2.92863 22.4737C3.33785 22.8829 4.00939 22.8829 4.40811 22.4737Z" fill="#4871FD"/>
</svg>
